M48
; DRILL file {KiCad (5.1.5)-3} date 7/11/2020 12:43:17 AM
; FORMAT={-:-/ absolute / inch / decimal}
; #@! TF.CreationDate,2020-07-11T00:43:17+09:00
; #@! TF.GenerationSoftware,Kicad,Pcbnew,(5.1.5)-3
; #@! TF.FileFunction,Plated,1,2,PTH
FMAT,2
INCH
T1C0.0157
T2C0.0276
T3C0.0579
%
G90
G05
T1
X4.4688Y-4.625
X4.4688Y-5.25
X4.5938Y-4.5625
X4.6875Y-4.875
X4.6875Y-5.0419
X4.9375Y-4.5625
X5.0312Y-4.5625
X5.2812Y-5.2812
X5.4375Y-4.7812
X6.0625Y-4.8438
X6.25Y-5.2812
T3
X5.6937Y-4.3687
X5.7453Y-4.3113
X5.9422Y-4.2916
X5.9437Y-4.2687
X6.4437Y-5.1187
X6.4953Y-5.0613
X6.6922Y-5.0416
X6.6937Y-5.0187
X5.6937Y-5.1187
X5.7453Y-5.0613
X5.9422Y-5.0416
X5.9437Y-5.0187
X6.4437Y-4.3687
X6.4953Y-4.3113
X6.6922Y-4.2916
X6.6937Y-4.2687
T2
G00X4.1375Y-4.1326
M15
G01X4.1375Y-4.1799
M16
G05
G00X4.1375Y-4.3098
M15
G01X4.1375Y-4.357
M16
G05
G00X4.425Y-4.1326
M15
G01X4.425Y-4.1799
M16
G05
G00X4.425Y-4.3098
M15
G01X4.425Y-4.357
M16
G05
T0
M30
