G04 #@! TF.GenerationSoftware,KiCad,Pcbnew,(5.1.5)-3*
G04 #@! TF.CreationDate,2020-07-11T00:43:04+09:00*
G04 #@! TF.ProjectId,kicad-pcb-01,6b696361-642d-4706-9362-2d30312e6b69,rev?*
G04 #@! TF.SameCoordinates,Original*
G04 #@! TF.FileFunction,Legend,Top*
G04 #@! TF.FilePolarity,Positive*
%FSLAX46Y46*%
G04 Gerber Fmt 4.6, Leading zero omitted, Abs format (unit mm)*
G04 Created by KiCad (PCBNEW (5.1.5)-3) date 2020-07-11 00:43:04*
%MOMM*%
%LPD*%
G04 APERTURE LIST*
%ADD10C,0.150000*%
%ADD11O,1.802000X2.802000*%
%ADD12C,1.852000*%
%ADD13C,4.089800*%
G04 APERTURE END LIST*
D10*
X120016071Y-139485714D02*
X120016071Y-140485714D01*
X120016071Y-139533333D02*
X120111309Y-139485714D01*
X120301785Y-139485714D01*
X120397023Y-139533333D01*
X120444642Y-139580952D01*
X120492261Y-139676190D01*
X120492261Y-139961904D01*
X120444642Y-140057142D01*
X120397023Y-140104761D01*
X120301785Y-140152380D01*
X120111309Y-140152380D01*
X120016071Y-140104761D01*
X121349404Y-140152380D02*
X121349404Y-139628571D01*
X121301785Y-139533333D01*
X121206547Y-139485714D01*
X121016071Y-139485714D01*
X120920833Y-139533333D01*
X121349404Y-140104761D02*
X121254166Y-140152380D01*
X121016071Y-140152380D01*
X120920833Y-140104761D01*
X120873214Y-140009523D01*
X120873214Y-139914285D01*
X120920833Y-139819047D01*
X121016071Y-139771428D01*
X121254166Y-139771428D01*
X121349404Y-139723809D01*
X121825595Y-139485714D02*
X121825595Y-140152380D01*
X121825595Y-139580952D02*
X121873214Y-139533333D01*
X121968452Y-139485714D01*
X122111309Y-139485714D01*
X122206547Y-139533333D01*
X122254166Y-139628571D01*
X122254166Y-140152380D01*
X122635119Y-139485714D02*
X123158928Y-139485714D01*
X122635119Y-140152380D01*
X123158928Y-140152380D01*
X123920833Y-140104761D02*
X123825595Y-140152380D01*
X123635119Y-140152380D01*
X123539880Y-140104761D01*
X123492261Y-140009523D01*
X123492261Y-139628571D01*
X123539880Y-139533333D01*
X123635119Y-139485714D01*
X123825595Y-139485714D01*
X123920833Y-139533333D01*
X123968452Y-139628571D01*
X123968452Y-139723809D01*
X123492261Y-139819047D01*
X124397023Y-140152380D02*
X124397023Y-139485714D01*
X124397023Y-139676190D02*
X124444642Y-139580952D01*
X124492261Y-139533333D01*
X124587500Y-139485714D01*
X124682738Y-139485714D01*
X124968452Y-140104761D02*
X125063690Y-140152380D01*
X125254166Y-140152380D01*
X125349404Y-140104761D01*
X125397023Y-140009523D01*
X125397023Y-139961904D01*
X125349404Y-139866666D01*
X125254166Y-139819047D01*
X125111309Y-139819047D01*
X125016071Y-139771428D01*
X124968452Y-139676190D01*
X124968452Y-139628571D01*
X125016071Y-139533333D01*
X125111309Y-139485714D01*
X125254166Y-139485714D01*
X125349404Y-139533333D01*
X125682738Y-139485714D02*
X126063690Y-139485714D01*
X125825595Y-139152380D02*
X125825595Y-140009523D01*
X125873214Y-140104761D01*
X125968452Y-140152380D01*
X126063690Y-140152380D01*
X126825595Y-140152380D02*
X126825595Y-139628571D01*
X126777976Y-139533333D01*
X126682738Y-139485714D01*
X126492261Y-139485714D01*
X126397023Y-139533333D01*
X126825595Y-140104761D02*
X126730357Y-140152380D01*
X126492261Y-140152380D01*
X126397023Y-140104761D01*
X126349404Y-140009523D01*
X126349404Y-139914285D01*
X126397023Y-139819047D01*
X126492261Y-139771428D01*
X126730357Y-139771428D01*
X126825595Y-139723809D01*
X127730357Y-140152380D02*
X127730357Y-139152380D01*
X127730357Y-140104761D02*
X127635119Y-140152380D01*
X127444642Y-140152380D01*
X127349404Y-140104761D01*
X127301785Y-140057142D01*
X127254166Y-139961904D01*
X127254166Y-139676190D01*
X127301785Y-139580952D01*
X127349404Y-139533333D01*
X127444642Y-139485714D01*
X127635119Y-139485714D01*
X127730357Y-139533333D01*
X128063690Y-139485714D02*
X128444642Y-139485714D01*
X128206547Y-139152380D02*
X128206547Y-140009523D01*
X128254166Y-140104761D01*
X128349404Y-140152380D01*
X128444642Y-140152380D01*
X128825595Y-140104761D02*
X128825595Y-140152380D01*
X128777976Y-140247619D01*
X128730357Y-140295238D01*
X129968452Y-139247619D02*
X130016071Y-139200000D01*
X130111309Y-139152380D01*
X130349404Y-139152380D01*
X130444642Y-139200000D01*
X130492261Y-139247619D01*
X130539880Y-139342857D01*
X130539880Y-139438095D01*
X130492261Y-139580952D01*
X129920833Y-140152380D01*
X130539880Y-140152380D01*
X131158928Y-139152380D02*
X131254166Y-139152380D01*
X131349404Y-139200000D01*
X131397023Y-139247619D01*
X131444642Y-139342857D01*
X131492261Y-139533333D01*
X131492261Y-139771428D01*
X131444642Y-139961904D01*
X131397023Y-140057142D01*
X131349404Y-140104761D01*
X131254166Y-140152380D01*
X131158928Y-140152380D01*
X131063690Y-140104761D01*
X131016071Y-140057142D01*
X130968452Y-139961904D01*
X130920833Y-139771428D01*
X130920833Y-139533333D01*
X130968452Y-139342857D01*
X131016071Y-139247619D01*
X131063690Y-139200000D01*
X131158928Y-139152380D01*
X131873214Y-139247619D02*
X131920833Y-139200000D01*
X132016071Y-139152380D01*
X132254166Y-139152380D01*
X132349404Y-139200000D01*
X132397023Y-139247619D01*
X132444642Y-139342857D01*
X132444642Y-139438095D01*
X132397023Y-139580952D01*
X131825595Y-140152380D01*
X132444642Y-140152380D01*
X133063690Y-139152380D02*
X133158928Y-139152380D01*
X133254166Y-139200000D01*
X133301785Y-139247619D01*
X133349404Y-139342857D01*
X133397023Y-139533333D01*
X133397023Y-139771428D01*
X133349404Y-139961904D01*
X133301785Y-140057142D01*
X133254166Y-140104761D01*
X133158928Y-140152380D01*
X133063690Y-140152380D01*
X132968452Y-140104761D01*
X132920833Y-140057142D01*
X132873214Y-139961904D01*
X132825595Y-139771428D01*
X132825595Y-139533333D01*
X132873214Y-139342857D01*
X132920833Y-139247619D01*
X132968452Y-139200000D01*
X133063690Y-139152380D01*
X134016071Y-139152380D02*
X134111309Y-139152380D01*
X134206547Y-139200000D01*
X134254166Y-139247619D01*
X134301785Y-139342857D01*
X134349404Y-139533333D01*
X134349404Y-139771428D01*
X134301785Y-139961904D01*
X134254166Y-140057142D01*
X134206547Y-140104761D01*
X134111309Y-140152380D01*
X134016071Y-140152380D01*
X133920833Y-140104761D01*
X133873214Y-140057142D01*
X133825595Y-139961904D01*
X133777976Y-139771428D01*
X133777976Y-139533333D01*
X133825595Y-139342857D01*
X133873214Y-139247619D01*
X133920833Y-139200000D01*
X134016071Y-139152380D01*
X134682738Y-139152380D02*
X135349404Y-139152380D01*
X134920833Y-140152380D01*
X136254166Y-140152380D02*
X135682738Y-140152380D01*
X135968452Y-140152380D02*
X135968452Y-139152380D01*
X135873214Y-139295238D01*
X135777976Y-139390476D01*
X135682738Y-139438095D01*
X137206547Y-140152380D02*
X136635119Y-140152380D01*
X136920833Y-140152380D02*
X136920833Y-139152380D01*
X136825595Y-139295238D01*
X136730357Y-139390476D01*
X136635119Y-139438095D01*
%LPC*%
D11*
X105093750Y-105568750D03*
X112393750Y-105568750D03*
X112393750Y-110068750D03*
X105093750Y-110068750D03*
D12*
X172561250Y-132556250D03*
X162401250Y-132556250D03*
D13*
X167481250Y-132556250D03*
D12*
X172561250Y-113506250D03*
X162401250Y-113506250D03*
D13*
X167481250Y-113506250D03*
D12*
X153511250Y-132556250D03*
X143351250Y-132556250D03*
D13*
X148431250Y-132556250D03*
D12*
X153511250Y-113506250D03*
X143351250Y-113506250D03*
D13*
X148431250Y-113506250D03*
M02*
